# xmcd CD database file
#
# Track frame offsets:
#	150
#	15224
#	29987
#	41762
#	52464
#	63799
#	75076
#	85068
#	96221
#	111877
#	124798
#	137877
#
# Disc length: 2010 seconds
#
# Revision: 0
# Processed by: cddbd v1.5.1PL0 Copyright (c) Steve Scherf et al.
# Submitted via: CDex 1.51
#
DISCID=9b07d80c
DTITLE=Slaki - 10x Zlati
DYEAR=2002
DGENRE=Country
TTITLE0=Nocoj poglej v nebo
TTITLE1=Lovski krst
TTITLE2=Snezinke
TTITLE3=Spet smo zbrani
TTITLE4=Domaca hisa
TTITLE5=Nas Francelj
TTITLE6=Kako sem se ujel
TTITLE7=Ljubezen, to je greh
TTITLE8=Citre in klarinet
TTITLE9=Povej, mi deklica
TTITLE10=Prisla pomlad bo
TTITLE11=Pisana majolka
EXTD=YEAR: 2002
EXTT0=
EXTT1=
EXTT2=
EXTT3=
EXTT4=
EXTT5=
EXTT6=
EXTT7=
EXTT8=
EXTT9=
EXTT10=
EXTT11=
PLAYORDER=
